<svg id="Layer_1" data-name="Layer 1" xmlns="http://www.w3.org/2000/svg" viewBox="0 0 512 434.2">
  <defs>
    <style>
      .cls-1 {
        fill: #d6d1b6;
      }
    </style>
  </defs>
  <path class="cls-1" d="M345,291.6c9.6,0,18,4.8,25,14.5s10.6,21.5,10.6,35.6-3.5,26-10.6,35.6-15.4,14.5-25,14.5c-10.4,0-19.1-4.8-26.2-14.5s-10.6-21.5-10.6-35.6,3.5-26,10.6-35.6,15.9-14.5,26.2-14.5M470.8,161.4Q512.05,206,512,269.4c0,27.5-3.2,52.1-9.5,74s-14.3,39.7-23.9,53.4A156.61,156.61,0,0,1,443,433q-21.15,15.6-39,22.8a197.48,197.48,0,0,1-40.6,11.1q-22.8,3.9-34.5,4.5c-7.8.4-16.1.6-25,.6-2.2,0-8.9.2-20,.6s-20.4.6-27.8.6-16.7-.2-27.8-.6-17.8-.6-20-.6c-8.9,0-17.3-.2-25-.6s-19.3-1.9-34.5-4.5a195.73,195.73,0,0,1-40.6-11.1C96.1,451,83.1,443.4,69,433a154.68,154.68,0,0,1-35.6-36.2Q19,376.25,9.5,343.4T0,269.4Q0,206,41.2,161.4c-3-1.5-3.2-16.3-.6-44.5S49.3,62.7,59,39q51.15,5.55,126.9,57.9c17.1-4.5,40.4-6.7,70.1-6.7,31.2,0,54.5,2.2,70.1,6.7q34.5-23.4,66.2-37.8t46.2-16.7L453,39c9.6,23.7,15.8,49.7,18.4,77.9s2.4,43-.6,44.5m-213.7,286q92.4,0,139.7-22.3t47.3-91.3q0-40.05-30.1-66.8a68.16,68.16,0,0,0-36.2-17.8q-20.55-3.3-62.9,0T257,252.5h-2.1c-11.9,0-27.3-.7-46.2-2.2s-33.8-2.4-44.5-2.8a131.47,131.47,0,0,0-35.1,3.9q-18.9,4.5-31.2,15.6C78.7,284.2,69,306.5,69,333.9q0,69,46.7,91.3t139.1,22.3h2.3m-89-155.9c9.6,0,18,4.8,25,14.5s10.6,21.5,10.6,35.6-3.5,26-10.6,35.6-15.4,14.5-25,14.5c-10.4,0-19.1-4.8-26.2-14.5s-10.6-21.5-10.6-35.6,3.5-26,10.6-35.6,15.8-14.5,26.2-14.5" transform="translate(0 -39)"/>
</svg>
